<svg xmlns="http://www.w3.org/2000/svg" fill="none" viewBox="0 0 140 140"><path fill="#103464" d="M55.22 45.35a.72.72 0 00-.7.72v3.27a.71.71 0 00.7.71h42.2a.72.72 0 00.7-.71v-3.27a.7.7 0 00-.7-.72h-42.2z"/><path fill="#103464" fill-rule="evenodd" d="M121.32 117.37c0 7.2-5.84 13.02-13.05 13.02-7.2 0-13.05-5.83-13.05-13.02 0-7.19 5.84-13.02 13.05-13.02 7.2 0 13.05 5.83 13.05 13.02zm-18.2.49l3.9 5 8.56-9-2.1-1.97-6.24 6.58-1.85-2.37-2.27 1.76z" clip-rule="evenodd"/><path fill="#E0E0E0" fill-rule="evenodd" d="M20.32 10h66.14a2.33 2.33 0 012.33 2.32v18.2h20.91a1.61 1.61 0 011.61 1.6v72.59c-.7-.17-1.41-.28-2.14-.33V34.66a1.6 1.6 0 00-.98-1.52c-.2-.08-.4-.13-.62-.13H45.52a1.63 1.63 0 00-1.6 1.65v84.82a1.62 1.62 0 001.6 1.64h50.25c.19.61.41 1.21.68 1.78H43.56a1.61 1.61 0 01-1.6-1.6v-17.48H20.32A2.33 2.33 0 0118 101.5V12.32a2.32 2.32 0 012.33-2.31l-.01-.01zm21.64 90.97v-4.28H25.6a1.1 1.1 0 01-1.07-1.1V70.62a1.09 1.09 0 011.07-1.1h16.36V63.7H25.6a1.09 1.09 0 01-1.07-1.1V37.64a1.09 1.09 0 011.07-1.1h16.36v-4.42a1.6 1.6 0 01.6-1.25H25.59c-.6 0-1.07-.54-1.07-1.2V17.99c0-.66.48-1.2 1.07-1.2h55.6c.58 0 1.06.54 1.06 1.2v11.68c0 .33-.12.63-.3.85h4.06V14.5a1.62 1.62 0 00-1.6-1.64H22.37a1.63 1.63 0 00-1.6 1.64v84.82a1.62 1.62 0 001.6 1.65h19.59zm0-51.9l-13.5 13.47a.65.65 0 00.47 1.1h13.03V49.07zm0 33l-13.5 13.46a.65.65 0 00.47 1.11h13.03V82.07zM31.41 18.43h43.97v2.5H31.42v-2.5h-.01zm44.06 5.26H31.5v1.16h43.97v-1.16zM31.5 25.75h43.97v1.16H31.5v-1.16zm43.97 2.05H31.5v1.16h43.97V27.8zm-42 17.12a2.5 2.5 0 100-5 2.5 2.5 0 000 5zm2.5 30.5a2.5 2.5 0 11-5 0 2.5 2.5 0 015 0z" clip-rule="evenodd"/><path fill="#E0E0E0" d="M54.83 56.24a.18.18 0 01.13-.05h42.9a.18.18 0 01.18.18v1.28a.18.18 0 01-.18.17h-42.9a.18.18 0 01-.18-.17v-1.28c0-.05.02-.1.05-.13zm0 4.16a.18.18 0 01.13-.06h42.9a.18.18 0 01.18.18v1.28a.18.18 0 01-.18.18h-42.9a.18.18 0 01-.18-.18v-1.28c0-.05.02-.1.05-.12zm.13 4.1a.18.18 0 00-.18.18v1.27a.18.18 0 00.18.18h42.9a.18.18 0 00.18-.18v-1.27a.18.18 0 00-.18-.18h-42.9zm-.22 8.35a.18.18 0 01.13-.05h42.9a.18.18 0 01.18.18v1.27a.18.18 0 01-.11.17.18.18 0 01-.07.01h-42.9a.18.18 0 01-.18-.18v-1.27c0-.05.02-.1.05-.13zm.13 4.1a.18.18 0 00-.18.18v1.28a.18.18 0 00.18.18h42.9a.18.18 0 00.18-.18v-1.28a.18.18 0 00-.18-.18h-42.9zm-.13 4.21a.18.18 0 01.13-.05h42.9a.18.18 0 01.18.17v1.28a.18.18 0 01-.18.18h-42.9a.18.18 0 01-.18-.18v-1.28c0-.04.02-.09.05-.12zm.13 4.12a.18.18 0 00-.17.11l-.01.07v1.28a.18.18 0 00.18.18h42.9a.18.18 0 00.17-.11l.01-.07v-1.28a.18.18 0 00-.18-.18h-42.9zm-.13 4.21a.18.18 0 01.13-.05h42.9a.18.18 0 01.18.17v1.28a.18.18 0 01-.18.18h-42.9a.18.18 0 01-.18-.18v-1.28c0-.04.02-.09.05-.12zm.13 4.11a.18.18 0 00-.18.17v1.28a.18.18 0 00.18.18h42.9a.18.18 0 00.18-.18v-1.28a.18.18 0 00-.18-.18h-42.9v.01zm-.13 4.22a.18.18 0 01.13-.05h42.9a.18.18 0 01.18.17v1.28a.18.18 0 01-.11.17.18.18 0 01-.07.01h-42.9a.18.18 0 01-.18-.18v-1.28c0-.04.02-.09.05-.12zm.13 4.1c-.05 0-.1.02-.13.05a.18.18 0 00-.05.13v1.28c0 .05.02.1.05.13.04.03.08.05.13.05h42.9a.18.18 0 00.18-.18v-1.28c0-.05-.02-.1-.05-.13a.18.18 0 00-.13-.05h-42.9zm-.13 4.21a.18.18 0 01.13-.05h42.9c.05 0 .1.02.12.05.04.03.06.07.06.12v1.28c0 .05-.02.1-.05.13a.18.18 0 01-.13.05h-42.9a.18.18 0 01-.13-.05.18.18 0 01-.05-.13v-1.28c0-.04.02-.09.05-.12z"/></svg>