<svg width="21" height="21" viewBox="0 0 21 21" fill="none" xmlns="http://www.w3.org/2000/svg">
<g clip-path="url(#clip0_1526_7838)">
<path d="M17.8726 9.5625C17.8726 5.56328 14.5968 3.3125 10.6851 3.3125C6.72178 3.3125 3.49756 6.53672 3.49756 10.5C3.49756 14.4633 6.72178 17.6875 10.6851 17.6875C12.0616 17.6869 13.4091 17.292 14.5683 16.5496C14.7617 16.4273 14.9932 16.3802 15.219 16.4171C15.4448 16.454 15.6493 16.5725 15.7937 16.75L16.1929 17.2344C16.2154 17.262 16.2364 17.2908 16.2558 17.3207C16.3224 17.4242 16.3679 17.5399 16.3899 17.661C16.4118 17.7822 16.4096 17.9065 16.3835 18.0268C16.3574 18.1471 16.3078 18.2611 16.2376 18.3623C16.1675 18.4634 16.0781 18.5498 15.9745 18.6164C14.4002 19.6402 12.563 20.1859 10.6851 20.1875C5.33037 20.1875 0.997559 15.8547 0.997559 10.5C0.997559 5.14531 5.33115 0.8125 10.6851 0.8125C16.0757 0.8125 20.3726 4.23633 20.3726 9.5625C20.3726 12.2312 19.0589 14.7664 15.6851 15.241V12.8191C17.0804 12.6133 17.8726 11.0469 17.8726 9.5625Z" fill="#E0E0E0"/>
<path d="M15.9896 6.9291C16.0131 6.80819 16.0126 6.68383 15.988 6.56314C15.9634 6.44245 15.9153 6.32778 15.8463 6.2257C15.7774 6.12362 15.689 6.03612 15.5863 5.9682C15.4835 5.90028 15.3684 5.85328 15.2475 5.82988C15.1885 5.8185 15.1286 5.81274 15.0686 5.8127H13.3107C13.181 5.81274 13.0558 5.86055 12.959 5.947C12.8623 6.03346 12.8007 6.15251 12.7861 6.28145V6.28496C12.2123 5.58574 11.2061 5.43457 10.4424 5.43457C7.53027 5.43457 5.05957 7.86504 5.05957 11.3506C5.05957 13.9014 6.49668 15.4861 8.80957 15.4861C9.86426 15.4861 11.0506 14.8752 11.7393 13.9889C12.1111 15.3209 13.3256 15.3209 14.5014 15.3209C14.8971 15.3225 15.2925 15.2964 15.6846 15.2428V12.8209C15.6564 12.8248 15.6283 12.8295 15.5998 12.8326C14.9221 12.815 14.9393 12.3307 15.0732 11.6607L15.9896 6.9291ZM9.83848 12.7045C8.96934 12.7045 8.42949 12.0943 8.42949 11.1119C8.42949 9.3541 9.63184 8.2709 10.7197 8.2709C11.5904 8.2709 12.1104 8.86621 12.1104 9.86348C12.1104 11.6236 10.7873 12.7045 9.83848 12.7045V12.7045Z" fill="#E0E0E0"/>
</g>
<defs>
<clipPath id="clip0_1526_7838">
<rect width="20" height="20" fill="white" transform="translate(0.685059 0.5)"/>
</clipPath>
</defs>
</svg>
