<svg xmlns="http://www.w3.org/2000/svg" fill="none" viewBox="0 0 20 20">
  <path fill="#E0E0E0" d="M17.19 9.06c0-4-3.28-6.25-7.19-6.25a7.2 7.2 0 103.88 13.24.94.94 0 011.23.2l.4.48a.99.99 0 01.2.43.94.94 0 01-.42.96A9.68 9.68 0 1110 .32c5.4 0 9.69 3.42 9.69 8.74 0 2.67-1.32 5.2-4.69 5.68v-2.42c1.4-.2 2.19-1.77 2.19-3.26z"/>
  <path fill="#103464" d="M15.3 6.43a.94.94 0 00-.92-1.12h-1.75a.53.53 0 00-.53.47c-.57-.7-1.58-.85-2.34-.85-2.92 0-5.39 2.44-5.39 5.92C4.37 13.4 5.81 15 8.12 15c1.06 0 2.25-.61 2.93-1.5.38 1.33 1.59 1.33 2.77 1.33.4 0 .79-.02 1.18-.08v-2.42l-.09.01c-.67-.02-.66-.5-.52-1.17l.91-4.73zM9.15 12.2c-.87 0-1.4-.6-1.4-1.59 0-1.76 1.2-2.84 2.28-2.84.87 0 1.4.6 1.4 1.6 0 1.75-1.33 2.83-2.28 2.83z"/>
</svg>
