<svg xmlns="http://www.w3.org/2000/svg" fill="none" viewBox="0 0 50 50">
  <g fill="#B91F2E" clip-path="url(#clip0)">
    <path d="M48.95 21.05c-2.65-9.5-9.2-16.4-15.57-16.4-.51 0-1.02.05-1.52.14a1.02 1.02 0 00-.8 1.27l1.3 4.69c.14.45.57.75 1.03.73h.1c2.36 0 6.68 3.54 8.88 11.4l.25.97a11.35 11.35 0 10-5.04 21.5c1.03 0 2.06-.15 3.06-.43 3.97-1.1 6.95-4.4 8.4-9.28 1.31-4.4 1.28-9.71-.09-14.6zM7.13 4.66c-.51 0-1.02.04-1.52.13a1.01 1.01 0 00-.8 1.27l1.31 4.69c.13.45.55.76 1.02.74h.1c2.36 0 6.68 3.53 8.88 11.4l.25.96a11.35 11.35 0 10-5.04 21.5c1.03 0 2.06-.15 3.06-.43 3.97-1.1 6.95-4.4 8.4-9.28 1.31-4.4 1.28-9.71-.09-14.6-2.65-9.49-9.2-16.38-15.57-16.38z"/>
  </g>
  <defs>
    <clipPath id="clip0">
      <path fill="#fff" d="M0 0h50v50H0z"/>
    </clipPath>
  </defs>
</svg>
