<svg xmlns="http://www.w3.org/2000/svg" fill="none" viewBox="0 0 800 800">
    <g clip-path="url(#a)">
        <path stroke="#F8C307" stroke-width="50"
              d="m416.2 52.5 90.2 182.9a68 68 0 0 0 51.3 37.2L759.5 302a18 18 0 0 1 10 30.9L623.5 475a68 68 0 0 0-19.6 60.2l34.5 201a18 18 0 0 1-26.2 19l-180.5-94.8a68.1 68.1 0 0 0-63.4 0L188 755.4a18 18 0 0 1-26.3-19.1l34.5-201a68 68 0 0 0-19.6-60.2l-146-142.3a18 18 0 0 1 10-30.9l201.8-29.3a68 68 0 0 0 51.3-37.2l90.2-182.9a18 18 0 0 1 32.4 0Z"/>
    </g>
    <defs>
        <clipPath id="a">
            <path fill="#fff" d="M0 0h800v800H0z"/>
        </clipPath>
    </defs>
</svg>
