<svg xmlns="http://www.w3.org/2000/svg" fill="none" viewBox="0 0 452 451"><g clip-path="url(#a)"><mask id="b" width="452" height="451" x="0" y="0" maskUnits="userSpaceOnUse" style="mask-type:luminance"><path fill="#fff" d="M451.6.08H.9v450.7h450.7V.08Z"/></mask><g mask="url(#b)"><path fill="#000" d="M226.25.08C350.71.08 451.6 100.97 451.6 225.43S350.71 450.79 226.25 450.79.9 349.9.9 225.44 101.79.08 226.25.08Z"/><path fill="#fff" d="M227.5 24.12c111.87 0 202.56 90.69 202.56 202.56S339.38 429.25 227.5 429.25 24.94 338.56 24.94 226.69 115.63 24.12 227.5 24.12Z"/><path fill="#FF004F" d="M291.201 181.758a119.751 119.751 0 0 0 69.9 22.35v-50.13c-4.93 0-9.85-.51-14.68-1.54l-1.26 38.26c-24.55.45-48.6-6.96-68.63-21.15v102.3c-.04 51.21-41.59 92.7-92.8 92.66a92.718 92.718 0 0 1-51.51-15.67c35.81 36.6 94.51 37.25 131.12 1.44a92.687 92.687 0 0 0 27.88-66.22l-.02-102.3Zm18.11-50.57a69.83 69.83 0 0 1-18.11-40.91v-6.45h-13.91a70.185 70.185 0 0 0 32.02 47.36Zm-144.72 178.38c-14.15-18.67-10.49-45.27 8.17-59.42a42.416 42.416 0 0 1 38.45-6.63v-51.25c-4.86-.67-9.77-.95-14.67-.84v39.89c-22.8-7.16-47.08 5.52-54.24 28.32-1.2 3.81-1.86 7.76-1.97 11.75.36 16.24 9.7 30.95 24.26 38.18Z"/><path fill="#00F2EA" d="M346.411 152.938v-9.85a69.856 69.856 0 0 1-37.11-10.6 68.832 68.832 0 0 0 37.11 20.45Zm-69.12-67.79c-.33-1.91-.59-3.83-.77-5.76v-6.45h-50.45v200.22c-.1 23.43-19.18 42.34-42.61 42.24a42.46 42.46 0 0 1-18.87-4.52c7.75 10.16 20.13 18.33 33.89 18.33 23.37 0 43.39-17.86 43.47-41.2l.36-202.87 34.98.01Zm-80.75 107.59v-11.36c-50.78-6.97-97.6 28.54-104.57 79.32-.57 4.13-.86 8.3-.86 12.47v1.48c.43 31.27 12.92 57.66 42.5 75.14-35.88-36.08-35.71-94.41.37-130.29a92.089 92.089 0 0 1 62.56-26.76Z"/><path fill="#000" d="M276.521 169.558a119.751 119.751 0 0 0 69.9 22.35v-39.46a70.208 70.208 0 0 1-37.11-21.26 70.188 70.188 0 0 1-32.02-47.35h-36.54v200.22c-.09 23.42-19.16 42.34-42.58 42.24a42.398 42.398 0 0 1-33.58-16.73c-20.91-10.55-29.3-36.05-18.75-56.96 9.38-18.58 30.86-27.61 50.7-21.3v-39.89c-51.16 1.04-91.79 43.36-90.74 94.52a92.624 92.624 0 0 0 26.41 62.91c42.56 28.49 100.15 17.08 128.64-25.47a92.718 92.718 0 0 0 15.67-51.51v-102.31Z"/></g></g><defs><clipPath id="a"><path fill="#fff" d="M0 0h452v451H0z"/></clipPath></defs></svg>