<svg xmlns="http://www.w3.org/2000/svg" fill="none" viewBox="0 0 20 21">
  <g clip-path="url(#clip0)">
    <path fill="#E0E0E0" d="M10 .81a9.69 9.69 0 100 19.37A9.69 9.69 0 0010 .81zm3.61 12.23l-.78.98a.62.62 0 01-.88.1l-2.61-1.95a1.56 1.56 0 01-.59-1.22V4.88a.62.62 0 01.63-.63h1.24a.62.62 0 01.63.63v5.62l2.27 1.66a.62.62 0 01.1.88z"/>
    <path fill="#103464" d="M13.61 13.04l-.78.98a.62.62 0 01-.88.1l-2.61-1.95a1.56 1.56 0 01-.59-1.22V4.88a.62.62 0 01.63-.63h1.24a.62.62 0 01.63.63v5.62l2.27 1.66a.62.62 0 01.1.88z"/>
  </g>
  <defs>
    <clipPath id="clip0">
      <path fill="#fff" d="M0 0h20v20H0z" transform="translate(0 .5)"/>
    </clipPath>
  </defs>
</svg>
