<svg xmlns="http://www.w3.org/2000/svg" fill="none" viewBox="0 0 40 40">
    <path fill="#7360F2" d="M0 0h40v40H0z"/>
    <g fill="#fff" clip-path="url(#a)">
        <path d="M30.9 8c-.8-.7-3.7-3-10.4-3 0 0-7.8-.4-11.6 3.1-2 2.2-2.8 5.3-2.9 9.2 0 3.9-.2 11.2 6.7 13.2v3s0 1.2.8 1.5c1 .3 1.5-.7 2.4-1.7a44 44 0 0 0 1.7-2c3 .4 6 .1 8.8-.6 1-.3 6.4-1 7.3-8.3 1-7.6-.4-12.3-2.8-14.4Zm.8 13.8c-.8 6.1-5.1 6.5-6 6.7-2.4.7-5 .9-7.5.7 0 0-3 3.7-4 4.7l-.4.2c-.2 0-.2-.3-.2-.6v-5c-5.8-1.6-5.5-7.9-5.4-11.1 0-3.3.6-6 2.4-7.8 3.2-3 9.9-2.5 9.9-2.5 5.5 0 8.2 1.8 8.8 2.3 2 1.9 3.1 6.2 2.4 12.4Z"/>
        <path fill-rule="evenodd" d="M20.1 12.7c0-.2.2-.4.4-.4 1.4 0 2.8.7 3.8 1.7.9 1 1.3 2.3 1.3 3.8 0 .2-.2.3-.4.3a.4.4 0 0 1-.4-.4c0-1.2-.3-2.3-1-3.2-1-.8-2-1.4-3.3-1.4a.4.4 0 0 1-.4-.4Zm.5 2c0-.2.2-.3.4-.3.8 0 1.5.3 2 .8.4.4.6 1.1.6 2 0 .1-.1.3-.3.3a.4.4 0 0 1-.4-.4c0-.6-.2-1.1-.5-1.4-.3-.3-.8-.5-1.4-.6a.4.4 0 0 1-.4-.4Z" clip-rule="evenodd"/>
        <path fill-rule="evenodd" d="M19.8 10.4a7.5 7.5 0 0 1 5.5 2.2 8 8 0 0 1 2.2 6c0 .1-.2.3-.4.3a.4.4 0 0 1-.3-.4c0-2.3-.7-4-2-5.4a6.8 6.8 0 0 0-5-2 .4.4 0 0 1-.4-.3c0-.2.2-.4.4-.4Z" clip-rule="evenodd"/>
        <path d="M21 22.2s.6 0 .9-.3l.5-.7c.3-.4 1-.6 1.6-.3l1.4 1 1.2 1c.5.3.5.8.3 1.4a5 5 0 0 1-1.2 1.4c-.3.3-.7.5-1.2.6H24a20 20 0 0 1-7.1-4.5l-.2-.1a14.7 14.7 0 0 1-2.8-4 16 16 0 0 1-1.5-3.3l-.1-.5v-.1c0-.4.2-.8.6-1.2.4-.5.9-.9 1.4-1.2.5-.3 1-.2 1.4.3l1 1.3.9 1.3c.3.7.1 1.3-.2 1.6l-.7.6c-.4.2-.3.8-.3.8s1 3.9 4.8 4.9Z"/>
    </g>
    <defs>
        <clipPath id="a">
            <path fill="#fff" d="M6 5h28v30H6z"/>
        </clipPath>
    </defs>
</svg>
