<svg width="40" height="40" viewBox="0 0 40 40" fill="none" xmlns="http://www.w3.org/2000/svg">
<rect width="40" height="40" fill="#7F40BD"/>
<path d="M29.2409 17.9103C29.2721 14.2446 26.15 10.8841 22.2813 10.4195C22.2043 10.4103 22.1205 10.3964 22.0318 10.3817C21.8402 10.35 21.6422 10.3174 21.4424 10.3174C20.6495 10.3174 20.4375 10.8743 20.3817 11.2066C20.3274 11.5295 20.3792 11.8007 20.5353 12.0131C20.7979 12.3701 21.2599 12.4335 21.631 12.4843C21.7397 12.4993 21.8424 12.5133 21.9283 12.5326C25.4042 13.3093 26.5746 14.5304 27.1466 17.9767C27.1606 18.0609 27.1669 18.1647 27.1736 18.2748C27.1985 18.6868 27.2505 19.5438 28.172 19.5438H28.1721C28.2488 19.5438 28.3312 19.5372 28.417 19.5241C29.2751 19.3937 29.2482 18.6103 29.2353 18.2338C29.2317 18.1278 29.2282 18.0275 29.2372 17.9608C29.2395 17.944 29.2408 17.9271 29.2409 17.9103Z" fill="white"/>
<path d="M21.2175 9.0742C21.3204 9.08161 21.4179 9.08872 21.499 9.10117C27.2068 9.97897 29.8317 12.6833 30.5592 18.4357C30.5715 18.5335 30.5734 18.6527 30.5755 18.779C30.5827 19.2284 30.5977 20.1634 31.6018 20.1827L31.6329 20.1831C31.9478 20.1831 32.1983 20.0881 32.3775 19.9006C32.69 19.5737 32.6683 19.088 32.6506 18.6977C32.6464 18.6019 32.6423 18.5117 32.6433 18.4327C32.7158 12.5495 27.6233 7.2146 21.7453 7.01625C21.7209 7.01544 21.6977 7.01676 21.6742 7.02006C21.6626 7.02173 21.6412 7.02387 21.6046 7.02387C21.546 7.02387 21.4738 7.01879 21.3974 7.01361C21.3049 7.00726 21.2001 7 21.0939 7C20.1578 7 19.9798 7.66533 19.9571 8.06193C19.9046 8.97858 20.7913 9.04307 21.2175 9.0742Z" fill="white"/>
<path d="M30.2838 25.8703C30.1624 25.7777 30.0369 25.6817 29.9195 25.5871C29.2963 25.0856 28.6333 24.6233 27.9921 24.1762C27.859 24.0836 27.726 23.9908 27.5934 23.8977C26.772 23.3208 26.0336 23.0405 25.336 23.0405C24.3963 23.0405 23.5771 23.5596 22.901 24.5834C22.6014 25.0373 22.238 25.2579 21.7901 25.2579C21.5253 25.2579 21.2243 25.1824 20.8958 25.0332C18.2446 23.831 16.3516 21.9878 15.2691 19.5546C14.7458 18.3787 14.9154 17.61 15.8364 16.9844C16.3594 16.6294 17.3329 15.9686 17.2639 14.7032C17.1858 13.2662 14.0151 8.94233 12.6792 8.45128C12.1136 8.24328 11.5193 8.24135 10.9097 8.44646C9.37385 8.96275 8.27175 9.86944 7.7222 11.0683C7.19113 12.2268 7.2151 13.587 7.79157 15.002C9.458 19.093 11.8009 22.6599 14.7554 25.6032C17.6474 28.4845 21.2019 30.8447 25.32 32.618C25.6912 32.7777 26.0805 32.8648 26.3648 32.9283C26.4617 32.9501 26.5453 32.9687 26.6063 32.9854C26.6398 32.9945 26.6744 32.9995 26.7091 32.9998L26.7416 32.9999C26.7417 32.9999 26.7416 32.9999 26.7418 32.9999C28.6787 32.9999 31.0044 31.23 31.7187 29.2122C32.3444 27.4454 31.2019 26.572 30.2838 25.8703Z" fill="white"/>
<path d="M22.0742 13.7473C21.7426 13.7557 21.0524 13.7728 20.8103 14.4757C20.697 14.8041 20.7106 15.0893 20.8507 15.3233C21.0562 15.6667 21.4501 15.7719 21.8084 15.8296C23.1077 16.0381 23.7749 16.7566 23.9084 18.0905C23.9704 18.7125 24.3892 19.1468 24.927 19.1468H24.9271C24.9668 19.1468 25.0074 19.1444 25.0479 19.1395C25.6947 19.0626 26.0082 18.5874 25.9799 17.7273C25.9903 16.8296 25.5205 15.8106 24.7215 14.9988C23.9197 14.1846 22.9532 13.7261 22.0742 13.7473Z" fill="white"/>
</svg>
