<svg width="40" height="40" viewBox="0 0 40 40" fill="none" xmlns="http://www.w3.org/2000/svg">
<rect width="40" height="40" fill="#57D163"/>
<path d="M33 19.6652C33 26.6601 27.286 32.3303 20.2363 32.3303C17.9983 32.3303 15.8957 31.7583 14.0665 30.7544L7 33L9.30389 26.2047C8.14169 24.2963 7.47234 22.0581 7.47234 19.6652C7.47234 12.6703 13.1869 7 20.2363 7C27.2867 7 33 12.6703 33 19.6652ZM20.2363 9.01702C14.3187 9.01702 9.50525 13.7938 9.50525 19.6652C9.50525 21.995 10.2647 24.1528 11.5494 25.908L10.2087 29.8626L14.3326 28.552C16.0269 29.6645 18.0567 30.3134 20.2366 30.3134C26.1534 30.3134 30.9676 25.5372 30.9676 19.6657C30.9676 13.7944 26.1536 9.01702 20.2363 9.01702ZM26.6817 22.5821C26.6029 22.4529 26.3945 22.3749 26.082 22.2198C25.7688 22.0647 24.2302 21.3133 23.9442 21.2101C23.6574 21.1068 23.4482 21.0548 23.2399 21.3653C23.0316 21.6762 22.4318 22.3749 22.249 22.5821C22.0664 22.7898 21.8842 22.8158 21.571 22.6604C21.2584 22.5053 20.2504 22.177 19.0554 21.1198C18.1254 20.297 17.4973 19.2813 17.3148 18.9701C17.1325 18.6595 17.2957 18.4917 17.452 18.3371C17.593 18.1979 17.7651 17.9746 17.9215 17.7934C18.0783 17.6121 18.1303 17.4829 18.234 17.2755C18.3389 17.0683 18.2866 16.8872 18.208 16.7315C18.13 16.5764 17.5037 15.0488 17.2432 14.4271C16.9825 13.806 16.7222 13.9093 16.5394 13.9093C16.3571 13.9093 16.1483 13.8833 15.9396 13.8833C15.7311 13.8833 15.392 13.961 15.105 14.2716C14.8185 14.5824 14.0104 15.3336 14.0104 16.861C14.0104 18.3886 15.131 19.8645 15.288 20.0713C15.4442 20.2782 17.4517 23.5149 20.6324 24.758C23.8134 26.0005 23.8134 25.5859 24.387 25.5339C24.9602 25.4823 26.2377 24.7832 26.4994 24.0586C26.7594 23.3329 26.7594 22.7115 26.6817 22.5821Z" fill="white"/>
</svg>
