<?xml version="1.0" standalone="no"?>
<!DOCTYPE svg PUBLIC "-//W3C//DTD SVG 20010904//EN"
 "http://www.w3.org/TR/2001/REC-SVG-20010904/DTD/svg10.dtd">
<svg version="1.0" xmlns="http://www.w3.org/2000/svg"
 width="600.000000pt" height="600.000000pt" viewBox="0 0 600.000000 600.000000"
 preserveAspectRatio="xMidYMid meet">
<metadata>
Created by potrace 1.14, written by Peter Selinger 2001-2017
</metadata>
<g transform="translate(0.000000,600.000000) scale(0.100000,-0.100000)"
fill="#000000" stroke="none">
<path d="M655 5994 c-108 -22 -138 -30 -190 -51 -239 -100 -416 -326 -455
-579 -7 -47 -10 -807 -8 -2409 3 -2182 5 -2344 21 -2396 90 -293 321 -502 608
-548 43 -7 816 -11 2371 -11 2497 0 2371 -3 2520 53 178 68 350 236 423 415
58 143 56 12 52 2572 -2 2187 -4 2349 -20 2401 -90 293 -321 502 -608 548 -61
10 -4664 15 -4714 5z m2946 -1911 c310 -703 564 -1282 564 -1286 0 -5 -126
-51 -280 -102 -258 -85 -506 -174 -663 -238 l-63 -26 -28 62 c-15 34 -149 342
-297 684 -148 343 -271 623 -274 623 -3 0 -63 -129 -134 -287 -70 -159 -290
-649 -488 -1090 l-361 -802 -101 -67 c-56 -37 -148 -102 -206 -144 -58 -41
-111 -79 -118 -84 -7 -4 18 54 56 131 50 99 1312 2892 1744 3861 17 37 23 42
52 42 l33 0 564 -1277z m1749 -1411 c-47 -26 -271 -151 -497 -277 -227 -127
-413 -233 -413 -237 0 -18 318 -725 391 -868 202 -401 301 -490 587 -530 1 0
2 -27 2 -60 l0 -60 -1115 0 -1115 0 0 60 0 60 70 0 c170 0 333 33 400 80 40
28 70 96 70 157 0 72 -26 149 -141 415 -56 128 -107 248 -115 266 -8 17 -18
32 -22 32 -29 0 -444 -251 -617 -373 -250 -176 -564 -453 -710 -626 l-60 -71
-748 0 -748 0 73 63 c605 523 1512 1093 2278 1432 831 368 1687 576 2400 583
l115 2 -85 -48z"/>
</g>
</svg>
