<svg xmlns="http://www.w3.org/2000/svg" fill="none" viewBox="0 0 24 18"><g clip-path="url(#a)"><path fill="#CC092F" d="M7.2 0H0v18h7.2V0Z"/><path fill="#0046AE" d="M24 0h-7.2v18H24V0Z"/><path fill="#FFD200" d="M16.8 0H7.2v18h9.6V0Z"/><path fill="#000" fill-rule="evenodd" d="M12.9 4.8c.06 0 .12.02.15.04a.11.11 0 0 0-.09.1v.14h.14c.05 0 .1-.03.11-.08.02.03.04.08.04.14 0 .06-.02.11-.04.14a.11.11 0 0 0-.11-.08h-.14v.65c0 .05.04.1.08.11-.06.01-.12.1-.14.14-.01-.04-.07-.13-.13-.14a.11.11 0 0 0 .08-.1V5.2h-.14c-.05 0-.1.04-.11.08a.24.24 0 0 1-.04-.14c0-.06.02-.1.04-.14.01.05.06.08.11.08h.14v-.13c0-.05-.04-.1-.08-.11a.24.24 0 0 1 .14-.04Z" clip-rule="evenodd"/><path fill="#FFD200" fill-rule="evenodd" d="m12.9 4.83.09.01a.14.14 0 0 0-.05.1v.17h.16c.04 0 .08-.02.1-.05a.25.25 0 0 1 0 .16.14.14 0 0 0-.1-.05h-.16v.68c0 .04.02.08.05.1a.22.22 0 0 0-.06.05l-.03.05-.02-.05a.22.22 0 0 0-.06-.05.14.14 0 0 0 .05-.1v-.68h-.16a.14.14 0 0 0-.1.05.25.25 0 0 1 0-.16c.02.03.06.05.1.05h.16v-.16a.14.14 0 0 0-.04-.1c.02-.02.04-.02.08-.02Z" clip-rule="evenodd"/><path fill="#B07E5B" fill-rule="evenodd" d="m12.8 7.2.23-.06.47-.25.3-.01.01-.58.57-.46.58.63.09.18-.03 5.7-.38-.45-.08.02-.38-.42-.33-.83-.1-.35-.44.53.16.3h-.15l-.01.13-.14-.06-.04.18-.3-.32-.44.21.82 1.46.29.21-.53.2-.53-.63.07.41.16.4-.65.38-.71-.42.35-.73-.11-.06-.47.67-.5-.25.66-.76.42-.92-.45-.15-.3.3-.05-.2-.16.09.02-.16-.17.03.2-.31-.5-.43-.33 1-.47.54-.1-.01-.34.42V6.5l.64-.66.61.5-.02.54h.27l.41.22.23.07.11.03.14-.16.2-.38V6.3l-.11-.24.02-.23h-.1l.06-.16-.1-.03.15-.13-.05-.05.52-.23.4-.02.1.04.06.1-.1.3.1.11-.1.22v.48l.08.4.18.3.1.04Z" clip-rule="evenodd"/><path fill="#CC092F" fill-rule="evenodd" d="m13.4 11.17.4.6h.2l.19.09.06.2-.03.1-.21.24-.18-.1-.13-.15-.04-.13-.5-.65.03-.16.1.07.05-.14.07.03ZM10.89 11.35l-.53.7-.05.15-.23.2-.07-.01-.26-.3.06-.2.24-.14.18.01.4-.6.07-.02.03.11.11-.03.05.13Z" clip-rule="evenodd"/><path fill="#000" fill-rule="evenodd" d="M12.27 5.17c.06 0 .16 0 .21.04.06.03.05.07.07.09.04.04.11.04.15.04.23 0 .24.24.24.24s-.06-.09-.17-.09c-.17 0-.3.1-.3.13l.02.02c.12 0 .28-.07.37-.07v.04c-.2.07-.4.17-.4.6 0 .27.03.55.17.77.05.08.12.14.2.2.04 0 .21-.06.33-.13.21-.12.33-.24.58-.25v-.2c0-.1-.04-.19-.04-.29.1-.03.4-.39.68-.55.4.26.72.69.72.89 0 0-.02 4.24 0 5.71 0 .09.05.2.05.2a1.56 1.56 0 0 1-.48-.56v.06c-.22-.1-.38-.36-.45-.5v.07c-.2-.18-.46-1.2-.46-1.2l.01-.22s.18.84.38 1.01V7.6l-.16.15-.24-.23v-.17l.21.2v-.51a1.71 1.71 0 0 1-.07-.11c-.03.06-.14.24-.27.35-.02-.08-.17-.17-.17-.17s-.05.14-.12.17c-.03-.04-.2-.15-.2-.15s.15.02.2.07c.05 0 .06-.2.06-.2s.2.1.24.17c.04 0 .1-.16.13-.22l-.16-.01a.55.55 0 0 0-.2.06l-.26.13a.95.95 0 0 1-.3.06l.17.1s-.25 0-.42-.09l-.18-.12c.02.06.06.14.12.2a.56.56 0 0 1-.42-.21.68.68 0 0 1-.09.17.7.7 0 0 1-.1-.17.56.56 0 0 1-.4.21c.05-.06.09-.14.11-.2l-.18.12c-.17.09-.41.09-.41.09l.17-.1a.94.94 0 0 1-.3-.06L10.64 7a.55.55 0 0 0-.21-.06h-.16c.03.07.09.22.13.23.03-.07.24-.17.24-.17s0 .2.06.2c.05-.05.2-.07.2-.07s-.17.1-.2.15c-.07-.03-.12-.17-.12-.17s-.15.09-.17.17c-.13-.11-.24-.3-.27-.35l-.07.11v.51l.21-.2v.17l-.24.23-.16-.15v3.62c.2-.17.38-1.01.38-1.01l.01.21s-.25 1.03-.45 1.2v-.06c-.08.14-.24.4-.46.5V12c-.06.14-.33.5-.48.57 0 0 .05-.12.05-.2.02-1.48 0-5.72 0-5.72 0-.2.32-.63.72-.89.27.16.57.52.68.55 0 .1-.04.2-.04.3v.2c.25 0 .37.12.58.24.12.07.3.12.33.13a.72.72 0 0 0 .2-.2c.12-.19.17-.41.17-.65 0-.1-.11-.2-.11-.29v-.19c-.03 0-.1.08-.1.08s0-.2.06-.24c0 0-.02-.02-.11-.03.02-.06.15-.14.15-.14a.08.08 0 0 0-.03-.03.42.42 0 0 0-.11-.04l.12-.03.35-.14c.21-.1.38-.11.47-.11Zm0 .06h-.06c-.21 0-.36.1-.56.18l-.14.06.06.06s-.1.02-.13.1c0 0 .08 0 .1.05-.05 0-.1.06-.1.12l.12-.04s-.03.14-.03.28c0 .08.1.17.1.3 0 .39-.1.54-.16.66-.03.05-.05.1-.1.15.2-.11.36-.25.36-.37V6.3h.05v.48c0 .09-.02.13-.02.13-.03.1-.1.26-.14.32.19-.1.28-.23.28-.27V6.3h.06v.67l-.01.04a.4.4 0 0 0 .07.09.4.4 0 0 0 .07-.09V6.3h.05v.66c0 .04.1.17.28.27a1.8 1.8 0 0 1-.14-.32s-.02-.04-.02-.13V6.3h.05v.48c0 .12.15.26.36.37-.05-.04-.07-.1-.1-.15-.08-.13-.17-.3-.17-.78 0-.19.03-.31.07-.4.02-.02.04-.1-.07-.1-.06 0-.19.1-.19.1s0-.08.07-.13c.01 0 .03-.03.03-.05 0-.02-.03-.06-.05-.07-.01 0 .22-.04.22-.15 0-.02-.01-.04-.06-.04-.07 0-.17.08-.26.08l-.17-.02c-.09 0-.27.16-.33.16.07-.04.18-.2.35-.2h.17c.07 0 .13-.06.21-.06l.12-.01c.01-.02 0-.04-.02-.06-.02-.03-.1-.04-.17-.04h-.06Zm2.11.71s-.37.35-.5.4V6.78c.09-.03.2-.18.26-.26v-.05a.13.13 0 0 0-.05-.1l.06-.01c.02.02.04.06.04.1v.03l.02.02.15.16.16-.25v-.06c0-.04-.03-.08-.06-.11l.05-.02c.03.03.06.08.06.12v.05l.19.2.09-.2c-.11-.16-.3-.34-.47-.47Zm-4.72 0c-.17.13-.36.3-.47.46l.1.2.18-.19v-.05c0-.04.03-.09.06-.12l.05.02c-.03.03-.06.07-.06.11v.06l.16.25.14-.15.01-.01.02-.02v-.03c0-.04.02-.08.04-.1l.06.02a.13.13 0 0 0-.05.1v.04c.06.08.17.23.27.26v-.46c-.14-.04-.51-.38-.51-.38Zm5.26.57-.1.15v.28l.14.12v-.41a.32.32 0 0 0-.04-.14Zm-5.8 0a.32.32 0 0 0-.04.14v.41l.13-.12v-.28l-.09-.15Zm5.45.03-.15.23v.17l.15.15v-.55Zm-5.1 0v.55l.15-.15v-.17l-.15-.23Zm5.16.04v.5l.15-.14v-.2l-.15-.16Zm-5.22 0-.15.16v.2l.15.14v-.5Zm4.76.04c-.03.04-.13.2-.23.25a.8.8 0 0 0 .23.23v-.48Zm-4.3 0v.48a.8.8 0 0 0 .23-.23c-.1-.04-.2-.21-.22-.25Zm4.35.02v.44l.15-.14V6.8l-.15-.15Zm-4.4 0-.15.15v.15l.15.14v-.44Zm5 .47v.44l.14-.12v-.2l-.13-.12Zm-5.6 0-.14.13v.2l.13.11v-.44Zm5.56 0-.09.08-.06.06v.16l.06.06.09.08v-.44Zm-.36 0v.44l.09-.08.06-.06v-.15l-.06-.07-.09-.08Zm-.05 0-.15.15v.15l.06.06.09.08v-.44Zm-.36 0v.44l.1-.08.06-.06v-.14A.61.61 0 0 1 14 7.1Zm-3.98 0a.61.61 0 0 1-.15.16v.14l.06.06.09.08v-.44Zm-.36 0v.44l.09-.08.06-.06v-.15l-.15-.15Zm-.05 0-.09.08-.06.07v.15l.06.06.09.08v-.44Zm-.36 0v.44l.09-.08.06-.06v-.16l-.06-.06-.09-.08Zm5.3.49-.16.15-.16-.15v3.62l-.02.3.33.34V7.6Zm-5.07 0v4.26l.33-.34-.02-.3V7.6l-.16.15-.15-.15Zm5.15 0v4.12c0 .12.22.39.32.45V7.6l-.16.15-.16-.15Zm-5.24 0-.16.15-.16-.15v4.57c.1-.06.32-.33.32-.45V7.6Zm3.94 3.24s.15.3.2.36h-.08l.31.47c.06.1.1.06.2.06.08 0 .26.12.29.17.03.06.05.12.05.18s-.06.14-.06.14c0-.03-.02-.04-.02-.04l-.19.23c-.01.02-.1.03-.13 0-.07-.06-.14-.1-.21-.2-.03-.05-.04-.11-.08-.17l-.44-.6-.02.06a2.1 2.1 0 0 0-.39-.4l.1-.05s.19.23.25.27l.04-.15s.08.05.12.05l.02-.12c.05.03.14.02.14.02-.08-.03-.17-.25-.17-.25l.07-.03Zm-2.64 0 .07.03s-.1.22-.17.25c0 0 .09.01.14-.02l.02.12c.04 0 .12-.05.12-.05l.04.15c.06-.04.26-.27.26-.27l.09.06s-.33.26-.4.4v-.07l-.45.6c-.04.06-.05.12-.08.17-.07.1-.14.14-.21.2-.03.03-.12.02-.13 0l-.2-.23-.01.04s-.06-.08-.06-.14c0-.06.02-.12.05-.18.03-.05.2-.17.29-.17.1 0 .14.05.2-.06l.3-.46h-.08c.06-.06.21-.37.21-.37Zm2.66.35s0 .1-.03.14l-.12-.08-.02.09.48.65c.03.04.06.16.06.16s.05-.02.05-.07V12s.04.04.1.04c0-.05-.1-.1-.1-.18.07.06.14.03.23.05.1.03.13.08.16.07.02 0 .03-.03.03-.05-.02-.03-.14-.12-.22-.13-.02 0-.18.03-.22-.02a2782.45 2782.45 0 0 1-.4-.58Zm-2.68 0a.12.12 0 0 1-.03.01l-.37.57c-.04.05-.2.01-.22.02-.08.01-.2.1-.22.13 0 .02.01.05.03.05.03 0 .06-.04.16-.07.09-.02.16 0 .23-.05 0 .07-.1.13-.1.18.06 0 .1-.04.1-.04v.1c0 .04.05.06.05.06s.03-.12.06-.16l.48-.65-.02-.1-.12.09c-.03-.04-.03-.14-.03-.14Zm1.75.07s.64 1.46 1.2 1.68c0 0-.25.1-.55.26a8.1 8.1 0 0 0-.13.07l-.12-.15c-.18-.24-.35-.51-.35-.51-.01.07.08.29.24.57l.1.16-.12.07c-.3.18-.58.39-.68.58-.1-.2-.38-.4-.68-.58a5.72 5.72 0 0 0-.12-.07l.1-.16c.16-.28.26-.5.24-.57 0 0-.17.27-.35.51l-.12.15a8.1 8.1 0 0 0-.13-.07c-.3-.16-.55-.26-.55-.26.56-.22 1.2-1.68 1.2-1.68l.1.03c-.01 0-.51 1.26-1 1.64.1.03.24.08.37.14.17-.2.34-.46.47-.69.15-.25.28-.69.28-.69.07.17-.08 1.02-.38 1.55.25.13.47.27.57.38.1-.11.32-.25.57-.38-.3-.53-.44-1.38-.38-1.55a3.54 3.54 0 0 0 .75 1.38c.13-.06.27-.11.38-.14-.5-.38-1-1.64-1-1.64l.1-.03Zm1.66.7h-.02V12l.06.05h.02V12l-.05-.04h-.01Zm-4.14 0-.06.05v.03h.02l.06-.05v-.02h-.02Zm4.08.05-.04.01v.06l.13.11c.02.02.05.01.06 0 .02-.02.02-.05 0-.06l-.13-.11-.02-.01Zm-4.01 0h-.03l-.13.12c-.02.01-.02.04 0 .06.01.01.04.02.06 0l.12-.1c.02-.02.02-.05 0-.07l-.02-.01Zm3.94.08c-.01 0-.03 0-.04.02v.06l.13.1c.02.02.04.02.06 0v-.06l-.13-.1-.02-.02Zm-3.87 0-.03.01-.13.11v.06c.02.02.04.02.06 0l.13-.1v-.06l-.03-.02Zm3.79.09-.04.01v.06l.13.11c.02.02.04.01.06 0v-.06l-.13-.11-.02-.01Zm-3.7 0h-.04l-.13.12v.05c.02.02.04.03.06.01l.13-.1c.01-.02.01-.05 0-.07l-.03-.01Z" clip-rule="evenodd"/><path fill="#000" d="m13.46 12.4.3-.16.06.33-.3.16-.06-.32Z"/><path fill="#000" fill-rule="evenodd" d="m15.13 9.1.1.04-1.2 2.63h-.13l1.23-2.68Zm-1.42 3.1.08.09-.05.12-.1-.05.07-.16Z" clip-rule="evenodd"/><path fill="#FFD200" d="m13.53 12.44.18-.1.04.2-.18.1-.04-.2Z"/><path fill="#000" fill-rule="evenodd" d="M14.75 11.17s-.1.2-.18.24c.04-.01.17.03.17.03s-.22.2-.42.22c-.16.01-.24-.07-.24-.07l.03-.17s.1-.13.26-.18c.16-.06.38-.07.38-.07ZM13.99 10.8s.14.11.18.25c.04.14-.03.3-.03.3l-.12.22s-.16-.09-.23-.22-.04-.3-.04-.3.13.04.14.07c-.02-.15.1-.33.1-.33ZM14.44 10.74s.16.05.31.04c.15 0 .27-.13.27-.13s-.12-.08-.18-.07c.06-.03.16-.2.16-.2s-.14-.03-.26.01c-.12.05-.22.18-.22.18l-.08.17ZM14.38 9.96s-.08.17-.06.22c-.02-.04-.12-.1-.12-.1s-.05.27 0 .44c.06.16.22.22.22.22l.18-.35s.03-.13-.03-.23a.73.73 0 0 0-.19-.2ZM15.42 9.53s-.17-.02-.33.04c-.13.06-.17.16-.17.16l-.07.17s.19.07.34.02c.15-.06.25-.23.25-.23s-.1-.04-.14-.03c.06-.02.12-.13.12-.13ZM14.88 9.2s-.08.1-.08.21c-.02-.06-.11-.12-.11-.12s-.1.23-.08.4c.02.16.16.26.16.26l.17-.33s.06-.13.04-.24c-.01-.1-.1-.18-.1-.18ZM15.47 8.57s.03.18-.02.29c-.05.09-.08.1-.08.1a.52.52 0 0 1 .23-.06s-.05.2-.16.29c-.12.09-.3.07-.3.07s-.12-.16-.1-.33c0-.17.13-.35.13-.35s.06.11.06.2c.03-.1.24-.2.24-.2Z" clip-rule="evenodd"/><path fill="#007A50" fill-rule="evenodd" d="M15.42 8.68s0 .13-.04.2a.27.27 0 0 1-.14.11s0-.13.04-.2c.04-.08.14-.1.14-.1ZM15.51 8.98s-.11 0-.18.06c-.06.05-.09.15-.09.15s.08 0 .14-.04c.07-.05.13-.17.13-.17ZM15.15 8.71s.04.1.04.18c0 .1-.06.2-.06.2s-.05-.1-.05-.2.06-.15.07-.18ZM15.35 9.56s-.06.08-.15.12c-.08.04-.21.04-.21.04s.06-.08.15-.12c.08-.04.2-.04.2-.04ZM15.32 9.74s-.04.08-.12.12c-.07.03-.23.03-.23.03s.06-.08.14-.11c.07-.04.2-.04.2-.04ZM14.88 9.31s.05.08.04.16c0 .08-.05.17-.05.17s-.04-.1-.04-.18c0-.09.05-.15.05-.15ZM14.72 9.42s.07.1.08.2c.02.12-.04.23-.04.23s-.1-.1-.1-.2c-.02-.11.06-.23.06-.23ZM14.93 10.4s0 .05-.04.09a.63.63 0 0 1-.09.08h-.12c-.07.01-.16.07-.16.07s.1-.14.2-.2c.1-.05.21-.03.21-.03ZM14.94 10.65s-.12-.05-.23-.04c-.1.02-.19.1-.19.1s.14.05.24.03c.1-.01.18-.09.18-.09ZM14.42 10.08s.1.11.12.21c0 .1-.1.2-.1.2v-.1a.42.42 0 0 0-.06-.1v-.09c0-.06.04-.12.04-.12ZM14.26 10.21s.1.1.13.22c.03.11-.02.23-.02.23s-.1-.07-.12-.19c-.03-.1.01-.26.01-.26ZM14 10.89s-.05.1-.06.18v.1l.07.08c.03.04.03.1.03.1s.1-.14.09-.25c-.02-.1-.13-.21-.13-.21ZM13.8 11.11s.12.08.17.17c.05.08.02.17.02.17s-.08 0-.13-.1c-.05-.08-.06-.24-.06-.24ZM14.61 11.46s-.18 0-.28.02c-.11.03-.15.09-.15.09s.12.05.23.03c.1-.03.2-.14.2-.14ZM14.64 11.25s-.08.12-.18.17c-.15.06-.31.03-.31.03s.09-.11.21-.16c.13-.05.28-.04.28-.04Z" clip-rule="evenodd"/><path fill="#000" fill-rule="evenodd" d="M14.07 11.58v.07c-.11 0-.13-.01-.16.02a.1.1 0 0 1-.1.02.09.09 0 0 1-.05-.11c.02-.05.07-.06.1-.05.03 0 .04.02.06.04.04.02.15.01.15.01Z" clip-rule="evenodd"/><path fill="#FFD200" fill-rule="evenodd" d="M13.8 11.6a.05.05 0 1 0 .09.03.05.05 0 0 0-.09-.04Z" clip-rule="evenodd"/><path fill="#000" fill-rule="evenodd" d="m14.08 11.53-.05.04c.05.1.07.1.06.14-.01.03 0 .08.03.1.04.03.1.02.12-.02.03-.04.02-.08-.01-.11l-.06-.03a.44.44 0 0 1-.1-.12Z" clip-rule="evenodd"/><path fill="#FFD200" fill-rule="evenodd" d="M14.21 11.77a.05.05 0 0 1-.08-.06.05.05 0 0 1 .08.06Z" clip-rule="evenodd"/><path fill="#000" fill-rule="evenodd" d="M14.44 10.77v.06c-.11 0-.13 0-.15.03a.1.1 0 0 1-.11.02.09.09 0 0 1-.04-.12c.02-.04.06-.05.1-.04l.06.03c.04.02.14.02.14.02Z" clip-rule="evenodd"/><path fill="#FFD200" fill-rule="evenodd" d="M14.17 10.78a.05.05 0 1 0 .09.04.05.05 0 0 0-.09-.04Z" clip-rule="evenodd"/><path fill="#000" fill-rule="evenodd" d="m14.42 10.79-.05.05c.07.08.1.08.08.12 0 .03.01.08.06.1.04.02.1 0 .11-.04.02-.05 0-.08-.03-.1l-.06-.03c-.04-.02-.11-.1-.11-.1Z" clip-rule="evenodd"/><path fill="#FFD200" fill-rule="evenodd" d="M14.59 11a.05.05 0 0 1-.09-.04.05.05 0 0 1 .06-.02c.03 0 .04.04.03.06Z" clip-rule="evenodd"/><path fill="#000" fill-rule="evenodd" d="M14.8 10v.07c-.11 0-.13-.01-.15.02a.1.1 0 0 1-.1.02.09.09 0 0 1-.05-.11c.02-.05.06-.05.1-.05.02 0 .04.03.06.04.04.02.14.01.14.01Z" clip-rule="evenodd"/><path fill="#FFD200" fill-rule="evenodd" d="M14.53 10.02a.05.05 0 1 0 .09.03.05.05 0 1 0-.09-.03Z" clip-rule="evenodd"/><path fill="#000" fill-rule="evenodd" d="m14.77 9.99-.04.05c.07.08.08.08.08.13 0 .02 0 .07.05.09.04.02.1 0 .12-.04.02-.05 0-.08-.04-.1-.01-.02-.04-.02-.06-.03-.04-.02-.1-.1-.1-.1Z" clip-rule="evenodd"/><path fill="#FFD200" fill-rule="evenodd" d="M14.94 10.2a.05.05 0 0 1-.06.02.05.05 0 0 1-.03-.06.05.05 0 0 1 .07-.02c.02 0 .03.04.02.06Z" clip-rule="evenodd"/><path fill="#000" fill-rule="evenodd" d="M15.19 9.2v.06c-.12 0-.13 0-.16.03a.1.1 0 0 1-.1.02.09.09 0 0 1-.05-.12c.02-.04.06-.05.1-.04.03 0 .04.02.06.03.04.02.15.02.15.02Z" clip-rule="evenodd"/><path fill="#FFD200" fill-rule="evenodd" d="M14.92 9.21a.05.05 0 1 0 .08.04.05.05 0 0 0-.08-.04Z" clip-rule="evenodd"/><path fill="#000" fill-rule="evenodd" d="m15.16 9.19-.05.04c.07.08.09.09.08.13 0 .03 0 .07.05.1.05.01.1 0 .12-.05.02-.04 0-.08-.03-.1-.02-.02-.05-.02-.07-.03-.04-.01-.1-.1-.1-.1Z" clip-rule="evenodd"/><path fill="#FFD200" fill-rule="evenodd" d="M15.32 9.4a.05.05 0 0 1-.08-.04.05.05 0 0 1 .09.04ZM14.5 10.58c.05.01.1-.16.15-.25.04-.1.13-.24.1-.25-.03-.01-.06.07-.1.16-.05.1-.18.32-.14.34ZM14.9 9.7c.04.01.08-.1.13-.19.04-.1.08-.16.06-.17-.03-.01-.07.07-.1.15-.04.07-.12.19-.09.2ZM14 11.7c.02 0 .15-.28.26-.5.1-.24.18-.43.16-.44-.03-.01-.11.2-.22.44-.1.23-.23.49-.2.5Z" clip-rule="evenodd"/><path fill="#0046AE" fill-rule="evenodd" d="M13.76 9.05v1.42l-.11.17-.66.36-.85.4-.1.1-.74-.4-.85-.4-.16-.25V9.06h3.47Z" clip-rule="evenodd"/><path fill="#CC092F" fill-rule="evenodd" d="m13.8 7.35-.04.12V9.1l-.05.07-.5.06-.55-.08-.53.08v.04l-.11-.02-.1.02v-.04l-.54-.08-.54.08-.5-.06-.07-.07.02-1.63-.05-.12h.6l1.18.01h1.18l.6-.01Z" clip-rule="evenodd"/><path fill="#FFD200" fill-rule="evenodd" d="m13.63 9.16-.27-.1-.2-.15-.12.14-.27.1.22.13.19.16.16-.12.29-.16ZM10.88 8.92l.12.13.26.1-.25.16-.15.14-.17-.14-.28-.14.29-.11.18-.14ZM12.02 7.57l.08.25.24-.12-.1.24.22.1-.23.07.1.24-.22-.11-.09.24-.09-.24-.22.1.1-.23-.23-.08.22-.1-.1-.23.23.11.1-.24Z" clip-rule="evenodd"/><path fill="#FFD200" fill-rule="evenodd" d="m11.4 7.53-.08.26-.12.34-.01.32.13.23.23.1.14.04.15-.08.17.1.2-.11.15.1.1-.06.17-.03.2-.2.03-.37-.23-.65.3.23.25.35v.45l-.18.3-.33.21-.1.03.16.28-.27.09-.14.14-.07.27.02.6.08.14.18.12v.12l-.19.12-.17.14h-.26l-.22-.15-.18-.1.04-.17.2-.15.04-.48-.06-.47-.28-.18-.15-.05.16-.3-.24-.08-.26-.23-.13-.46.08-.27.18-.23.3-.26Z" clip-rule="evenodd"/><path fill="#FFD200" fill-rule="evenodd" d="m12.51 9.58-.11.12.1.1.11-.1-.1-.12ZM11.53 9.57l.11.12-.1.11-.12-.1.1-.13ZM11.44 9.87l.2.05.06.12v.33l-.08.18-.11.05.01-.43-.08-.3ZM12.6 9.88l-.08.36v.35l-.1-.07-.07-.16-.01-.28.05-.17.2-.03ZM10.72 10.17l.23-.12.23.05.12.14.01.23-.17.2h-.04v-.2l-.17-.25-.21-.05ZM12.97 10.1 13 10l.13-.08.1.04.06.11-.03.1.1-.01.1.08.01.12-.06.07-.09.03h-.05l.04.1-.03.1-.1.06-.12-.03-.06-.12-.1.07-.11-.03-.08-.11.05-.11.06-.05-.08-.04-.04-.14.12-.13.1.02.05.04Z" clip-rule="evenodd"/><path fill="#000" fill-rule="evenodd" d="M12.62 7.44c.02.12.62.37.62.87 0 .64-.6.8-.6.8l.02.04.15.27s-.25.01-.38.12c-.16.14-.15.43-.15.64 0 .16.02.33.1.4.12.1.2.1.2.22 0 .1-.07.12-.2.18-.14.08-.13.18-.36.18-.22 0-.22-.1-.37-.18-.12-.06-.19-.08-.19-.18 0-.11.08-.12.2-.21.08-.08.1-.25.1-.41 0-.21.01-.5-.15-.64-.13-.11-.38-.12-.38-.12l.15-.27.02-.05s-.6-.15-.6-.79c0-.5.6-.75.62-.87.06.2-.2.5-.2.83 0 .44.32.46.32.46.08 0 .11.06.14.06.06-.01.1-.1.16-.1s.1.1.18.1c.08 0 .12-.1.18-.1.07 0 .1.09.16.1.03 0 .06-.06.14-.06 0 0 .32-.02.32-.46 0-.34-.26-.62-.2-.83Zm-1.24 1.71s-.4.18-.51.33c-.23-.17-.53-.31-.53-.31s.29-.08.53-.3c.14.19.5.28.5.28Zm1.28 0s.37-.09.51-.27c.25.21.54.29.54.29s-.3.14-.54.31a1.7 1.7 0 0 0-.5-.33Zm-.64-1.67.1.3.29-.14-.14.29.3.1-.3.11.14.28-.28-.13-.1.3-.11-.3-.29.13.14-.28-.3-.1.3-.11-.14-.29.29.14.1-.3Zm.69.14c-.03.05.2.38.2.65 0 .33-.18.53-.41.53-.05 0-.1.06-.14.06-.07 0-.12-.08-.16-.08-.05 0-.09.09-.18.09-.1 0-.13-.09-.18-.09-.04 0-.09.08-.16.08-.04 0-.09-.06-.14-.06-.23 0-.4-.2-.4-.53 0-.27.22-.6.2-.65 0 0-.45.32-.45.69 0 .6.61.75.61.75l-.13.3s.18.04.3.13c.15.12.16.46.16.69 0 .26-.01.38-.11.45s-.18.1-.18.17.08.1.18.14c.12.05.13.14.3.14.17 0 .18-.09.3-.14.1-.05.18-.07.18-.14 0-.08-.08-.1-.18-.17-.1-.07-.1-.19-.1-.45 0-.23 0-.57.15-.7.12-.08.3-.11.3-.11l-.13-.31s.6-.15.6-.75c0-.37-.43-.69-.43-.69Zm-.69.06-.07.2-.18-.1.09.19-.2.06.2.07-.09.18.18-.08.07.19.07-.2.18.1-.09-.19.2-.07-.2-.06.09-.18-.18.08-.07-.19Zm1.16 1.29c-.12.14-.32.2-.32.2s.2.1.31.22v.01h.01c.12-.11.35-.22.35-.22s-.22-.08-.35-.21Zm-2.32 0c-.13.13-.35.2-.35.2s.23.12.35.22v.02-.01c.12-.13.32-.24.32-.24s-.2-.05-.32-.2Zm1.65.58.14.14-.14.15-.14-.15.14-.14Zm-.98 0 .15.14-.15.15-.14-.15.14-.14Zm.98.07-.08.07.08.08.08-.08-.08-.07Zm-.98 0-.08.07.08.08.08-.08-.08-.07Zm1.11.22a1.63 1.63 0 0 0-.08.83s-.2-.06-.24-.27c-.02-.1-.04-.45.06-.51l.26-.05Zm-1.24 0 .26.05c.1.06.08.42.06.51-.04.21-.24.27-.24.27l.01-.28c0-.26-.06-.48-.1-.55Zm1.74.05h.03a.17.17 0 0 1 .11.26.17.17 0 0 1 .06-.01c.09 0 .16.07.17.16a.17.17 0 0 1-.2.18l.02.03c.03.1-.01.2-.1.23a.17.17 0 0 1-.23-.14l-.03.03a.17.17 0 0 1-.24-.02.17.17 0 0 1 .05-.26.17.17 0 0 1-.1-.25.17.17 0 0 1 .25-.06l.03.03v-.05c.03-.08.1-.13.18-.13Zm-.59.03-.14.03c-.06.07-.05.19-.05.35 0 .17.13.23.13.23 0-.4.04-.5.06-.61Zm-1.06 0c.02.12.06.21.06.6 0 0 .13-.05.13-.22 0-.16 0-.28-.05-.35l-.14-.03Zm1.64.05a.13.13 0 0 0-.14.14l.01.03a.2.2 0 0 1 .21.05.14.14 0 0 0 .04-.06.13.13 0 0 0-.12-.16Zm-2.13.05c.22 0 .38.17.35.38a.44.44 0 0 1-.33.36c.03-.05.05-.1.05-.16.03-.2-.13-.38-.35-.38l-.1.01a.45.45 0 0 1 .38-.21Zm1.86.05a.13.13 0 0 0-.03.26h.04a.2.2 0 0 1 .12-.18.12.12 0 0 0-.05-.06.13.13 0 0 0-.08-.02ZM11 10.1a.37.37 0 0 0-.2.05c.22.05.37.23.35.45a.33.33 0 0 0 .13-.21c.01-.17-.1-.3-.28-.3Zm2.3.08h-.05a.14.14 0 0 0-.03.03.2.2 0 0 1 .01.21.12.12 0 0 0 .08.02.13.13 0 1 0-.02-.26Zm-.23.02a.13.13 0 0 0 0 .26c.07 0 .12-.06.12-.13a.13.13 0 0 0-.12-.13Zm-.2.15a.15.15 0 0 0-.07.03.13.13 0 0 0-.02.18c.05.06.13.07.2.02a.14.14 0 0 0 .04-.07.2.2 0 0 1-.15-.16Zm.36.09a.2.2 0 0 1-.2.08.13.13 0 0 0 0 .08.13.13 0 1 0 .23-.14l-.03-.02Zm-.98.31c.12 0 .2.03.2.06 0 .04-.08.07-.2.07-.03 0-.07-.02-.07-.07 0-.04.04-.06.07-.06Zm-.46 0c.03 0 .07.02.07.06 0 .05-.04.07-.07.07-.12 0-.2-.03-.2-.07 0-.03.08-.06.2-.06Z" clip-rule="evenodd"/><path fill="#FFD200" fill-rule="evenodd" d="M13.95 7.3s-.15.12-.15.24v2.88c0 .08-.03.13-.06.17a.82.82 0 0 1-.2.18c-.26.17-.68.34-1 .49-.27.12-.38.17-.52.34-.14-.17-.25-.22-.52-.34-.32-.15-.74-.32-1-.49a.82.82 0 0 1-.2-.18.26.26 0 0 1-.06-.17V7.54c0-.12-.15-.24-.15-.24H13.96Zm-.2.1H10.3s.05.05.05.14v2.88c0 .06.06.21.44.4.62.3 1.1.45 1.24.63.14-.18.62-.32 1.24-.63.38-.19.44-.34.44-.4V7.54c0-.1.05-.15.05-.15Z" clip-rule="evenodd"/><path fill="#000" fill-rule="evenodd" d="M12.1 5.54c0 .06.07.1.14.1.08 0 .14-.04.14-.1 0-.05-.06-.1-.14-.1-.07 0-.13.05-.13.1Z" clip-rule="evenodd"/><path fill="#CC092F" fill-rule="evenodd" d="M12.89 5.48s-.05-.08-.16-.08h-.2c-.02.05-.11.14-.11.23 0 0 .1-.17.36-.17.06 0 .1.02.1.02Z" clip-rule="evenodd"/><path fill="#000" fill-rule="evenodd" d="M12.55 5.5s.06-.01.06-.04c0-.02-.03-.02-.05 0l-.01.05Z" clip-rule="evenodd"/><path fill="#CC092F" fill-rule="evenodd" d="M12.46 5.66s.05.06.06.1a.67.67 0 0 0 .16-.13s-.08.05-.22.03Z" clip-rule="evenodd"/><path fill="#000" fill-rule="evenodd" d="m8.3 8.64.21.15-.02.05s.04 0 .05.04c.02.04 0 .08 0 .08h.22c.03.02-.01.16 0 .28.03.16.1.14.1.17s-.03.08-.03.08.04.01.05.03v.1l.3.58.06.06c.01.03 0 .07 0 .07s.06 0 .08.04c.02.04 0 .1 0 .1s.04 0 .06.04c.02.03-.02.05 0 .07l.32.64c.03.06.13.07.2.19.05.11-.03.2-.03.2s.08 0 .1.05c.03.04.01.11-.05.15-.06.03-.13 0-.16-.04-.02-.05.03-.12.03-.12s-.12.01-.18-.1c-.06-.12 0-.21-.04-.27l-.32-.64c-.01-.01-.05 0-.06-.04-.02-.03 0-.06 0-.06s-.05-.02-.08-.06c-.01-.04.01-.09.01-.09s-.04-.01-.05-.04c-.02-.03 0-.06-.02-.09l-.3-.58c0-.03-.06-.04-.07-.06v-.05s-.05 0-.07-.03c-.03-.02.02-.06-.1-.18-.08-.08-.2-.13-.2-.16 0-.04.13-.19.13-.19s-.06 0-.08-.04c-.01-.03 0-.07 0-.07H8.3v-.26Zm1.95 3.7c.03 0 .04.01.05.02v.06s.07-.02.09-.01c.02 0 0 .32 0 .32s-.26-.17-.26-.2c0-.02.06-.06.06-.06a.06.06 0 0 1-.05-.03c0-.02 0-.06.05-.1a.1.1 0 0 1 .06 0Z" clip-rule="evenodd"/><path fill="#FFD200" fill-rule="evenodd" d="m8.34 8.71.12.09-.06.03-.06.03v-.15Zm.12.14c.02 0 .04.02.05.04.02.03 0 .07-.03.09-.04.01-.08 0-.1-.03-.01-.03 0-.07.04-.09h.04Zm.23.15h.03c.02 0 0 .12 0 .21 0 .1.03.12.05.15.01.03.07.06.07.06l-.05.04-.07-.13c-.05-.1-.05-.28-.06-.3L8.53 9h.16Zm-.19.02s.11.02.13.04c.02.01 0 .17.07.29l.07.13-.03.02-.03.01-.06-.14c-.06-.11-.2-.2-.2-.22l.05-.13Zm-.04.02-.04.12c0 .01.15.12.2.22.05.09.06.14.06.14h-.06v-.08c-.02-.03-.02-.07-.1-.13-.07-.05-.17-.1-.17-.12 0-.02.11-.15.11-.15Zm.34.49.04.02c.01.03 0 .06.1.23l.1.2.1.2s.02.04-.02.06c-.04.02-.06-.02-.06-.02l-.1-.2-.1-.2c-.09-.17-.12-.19-.13-.2-.01-.03 0-.07.03-.09h.04Zm.39.73.03.02c.01.02 0 .05-.04.07-.04.02-.07.02-.09 0 0-.03.01-.06.05-.08a.1.1 0 0 1 .05 0Zm.05.11c.03 0 .05 0 .06.02.01.03-.01.07-.05.1-.05.02-.1.01-.1-.02-.02-.03 0-.07.04-.09l.05-.01Zm.07.13c.02 0 .03.01.03.02.02.02 0 .06-.04.07-.03.02-.07.02-.08 0-.01-.03 0-.06.04-.08a.1.1 0 0 1 .05 0Zm.03.12.04.02.3.6c.03.06.14.09.18.17.04.08.01.16-.05.19-.05.03-.13 0-.17-.08-.05-.08 0-.18-.03-.23l-.31-.6s-.02-.05.02-.07h.02Zm.55 1.03c.03 0 .05 0 .06.03.02.03 0 .08-.04.1-.05.02-.1.01-.11-.02-.02-.04 0-.08.04-.1a.1.1 0 0 1 .05-.01Zm.36.71.03.01c0 .02-.01.05-.04.06-.03.02-.06.02-.07 0-.01-.02 0-.04.04-.06a.1.1 0 0 1 .04 0Zm.1.09v.22l-.17-.13s.02-.05.08-.07c.05-.03.1-.02.1-.02ZM12.15 5.54a.1.1 0 0 0 .19 0 .1.1 0 0 0-.2 0Z" clip-rule="evenodd"/><path fill="#000" fill-rule="evenodd" d="M12.2 5.54a.04.04 0 0 0 .08 0 .04.04 0 0 0-.09 0Z" clip-rule="evenodd"/></g><defs><clipPath id="a"><rect width="24" height="18" fill="#fff" rx="3"/></clipPath></defs></svg>